<svg class="animated" id="freepik_stories-rice-field" xmlns="http://www.w3.org/2000/svg" viewBox="0 0 500 500" version="1.1" xmlns:xlink="http://www.w3.org/1999/xlink" xmlns:svgjs="http://svgjs.com/svgjs"><style>svg#freepik_stories-rice-field:not(.animated) .animable {opacity: 0;}svg#freepik_stories-rice-field.animated #freepik--Plants_2--inject-35 {animation: 6s Infinite  linear shake;animation-delay: 0s;}svg#freepik_stories-rice-field.animated #freepik--Character--inject-35 {animation: 6s Infinite  linear wind;animation-delay: 0s;}            @keyframes shake {                10%, 90% {                    transform: translate3d(-1px, 0, 0);                  }                  20%, 80% {                    transform: translate3d(2px, 0, 0);                  }                  30%, 50%, 70% {                    transform: translate3d(-4px, 0, 0);                  }                  40%, 60% {                    transform: translate3d(4px, 0, 0);                  }            }                    @keyframes wind {                0% {                    transform: rotate( 0deg );                }                25% {                    transform: rotate( 1deg );                }                75% {                    transform: rotate( -1deg );                }            }        </style><g id="freepik--background-complete--inject-35" class="animable" style="transform-origin: 250px 194.455px;"><g id="el25hsqokr10s" class="animable" style="transform-origin: 250px 196.917px;"><g id="elirwbadvaph" class="animable" style="transform-origin: 249.333px 174.066px;"><path d="M443.92,311.565h-180.746c-3.232,0-5.862-2.63-5.862-5.862V42.429c0-3.232,2.63-5.862,5.862-5.862h180.746c3.232,0,5.862,2.629,5.862,5.862V305.703c0,3.233-2.63,5.862-5.862,5.862ZM263.174,36.817c-3.095,0-5.612,2.518-5.612,5.612V305.703c0,3.095,2.518,5.612,5.612,5.612h180.746c3.095,0,5.612-2.517,5.612-5.612V42.429c0-3.094-2.518-5.612-5.612-5.612h-180.746Z" style="fill: rgb(224, 224, 224); transform-origin: 353.547px 174.066px;" id="ela8d805vkb7" class="animable"></path><path d="M235.493,311.565H54.746c-3.232,0-5.862-2.63-5.862-5.862V42.429c0-3.232,2.629-5.862,5.862-5.862H235.493c3.232,0,5.862,2.629,5.862,5.862V305.703c0,3.233-2.63,5.862-5.862,5.862ZM54.746,36.817c-3.094,0-5.612,2.518-5.612,5.612V305.703c0,3.095,2.518,5.612,5.612,5.612H235.493c3.095,0,5.612-2.517,5.612-5.612V42.429c0-3.094-2.518-5.612-5.612-5.612H54.746Z" style="fill: rgb(224, 224, 224); transform-origin: 145.119px 174.066px;" id="elof0wrseh1pd" class="animable"></path></g><rect x="0" y="333.463" width="500" height=".25" style="fill: rgb(224, 224, 224); transform-origin: 250px 333.588px;" id="eldozx4r24kvv" class="animable"></rect><rect x="51.672" y="347.727" width="16.06" height=".25" style="fill: rgb(224, 224, 224); transform-origin: 59.702px 347.852px;" id="elualadbgdmvo" class="animable"></rect><rect x="170.352" y="345.017" width="53.53" height=".25" style="fill: rgb(224, 224, 224); transform-origin: 197.117px 345.142px;" id="el8od1p4v3ju2" class="animable"></rect><rect x="68.732" y="357.017" width="36.25" height=".25" style="fill: rgb(224, 224, 224); transform-origin: 86.857px 357.142px;" id="elog1x95yf4wi" class="animable"></rect><rect x="378.352" y="344.887" width="43.19" height=".25" style="fill: rgb(224, 224, 224); transform-origin: 399.947px 345.012px;" id="elwz7gvcnlh1" class="animable"></rect><rect x="430.452" y="344.887" width="6.33" height=".25" style="fill: rgb(224, 224, 224); transform-origin: 433.617px 345.012px;" id="ele1xwdlrfx9d" class="animable"></rect><rect x="316.212" y="351.117" width="53.89" height=".25" style="fill: rgb(224, 224, 224); transform-origin: 343.157px 351.242px;" id="elsp8r6azeew" class="animable"></rect></g><g id="el4k1gw89x1ic" class="animable" style="transform-origin: 250.52px 91.953px;"><path d="M469.332,84.674c-.061-.126-.128-.268-.191-.4v-.444h-.212c-1.116-2.36-2.489-5.441-3.532-7.596-1.624,1.686-2.672,3.572-3.061,5.507-1.147-1.699-2.293-3.398-3.44-5.097l-4.657,4.72c-.8-1.221-1.6-2.442-2.4-3.663-1.498,1.432-2.69,2.979-3.538,4.593-2.244-3.682-4.014-7.469-5.288-11.316-2.158,3.094-4.892,7.464-5.085,10.818-2.237-2.859-3.185-10.825-4.178-9.87-3.302,3.063-5.238,6.654-5.552,10.301-1.434-2.224-2.867-4.447-4.3-6.67-.378,2.222-.756,4.445-1.134,6.667-2.395-1.609-4.791-3.218-7.186-4.827-.422,1.37-.845,2.74-1.267,4.11-1.769-1.545-2.939-3.336-3.39-5.193-2.165,1.227-3.602,2.912-3.996,4.686-2.061-3.665-2.873-7.582-2.372-11.439-3.579,3.972-5.72,8.41-6.233,12.919-2.347-1.686-2.426-3.032-3.131-5.369-1.018,1.936-1.768,3.658-1.888,5.426-1.017-2.101-2.033-4.202-3.05-6.303-1.624,1.686-2.673,3.572-3.061,5.507-1.146-1.699-2.293-3.398-3.44-5.097-1.552,1.573-3.105,3.147-4.657,4.72-.8-1.221-1.6-2.442-2.4-3.663-1.498,1.432-2.69,2.979-3.538,4.593-2.244-3.682-4.014-7.469-5.288-11.316-2.158,3.094-4.892,7.464-5.085,10.818-2.237-2.859-3.185-10.825-4.177-9.87-3.302,3.063-5.238,6.654-5.553,10.301-1.433-2.224-2.867-4.447-4.3-6.67-.378,2.222-.756,4.445-1.134,6.667-2.396-1.609-4.791-3.218-7.187-4.827-.422,1.37-.844,2.74-1.267,4.11-1.769-1.545-2.939-3.336-3.391-5.193-2.165,1.227-3.601,2.912-3.996,4.686-2.061-3.665-2.873-7.582-2.372-11.439-3.579,3.972-5.721,8.41-6.233,12.919-2.347-1.686-4.33-3.557-5.88-5.549,.559,2.3,1.118,4.599,1.677,6.899h-21.769c-.94-2.303-2.055-5.17-2.914-7.211-1.412,1.686-2.324,3.572-2.662,5.507-.997-1.699-1.994-3.398-2.991-5.097-1.35,1.573-2.7,3.147-4.05,4.72-.696-1.221-1.392-2.442-2.087-3.663-1.303,1.432-2.34,2.979-3.077,4.593-1.951-3.682-3.491-7.469-4.599-11.316-1.877,3.094-4.255,7.464-4.422,10.818-1.946-2.859-2.77-10.825-3.633-9.87-2.872,3.063-4.555,6.654-4.829,10.301-1.247-2.224-2.493-4.447-3.74-6.67-.329,2.222-.657,4.445-.986,6.667-2.083-1.609-4.167-3.218-6.25-4.827-.367,1.37-.734,2.74-1.102,4.11-1.538-1.545-2.556-3.336-2.949-5.192-1.883,1.227-3.132,2.912-3.475,4.686-1.792-3.665-2.499-7.582-2.063-11.439-3.113,3.972-4.975,8.41-5.421,12.919-2.042-1.686-2.109-3.032-2.723-5.369-.886,1.936-1.538,3.658-1.642,5.426-.884-2.101-1.768-4.202-2.652-6.303-1.412,1.686-2.324,3.572-2.662,5.507-.997-1.699-1.994-3.398-2.991-5.097-1.35,1.573-2.7,3.147-4.05,4.72-.696-1.221-1.391-2.442-2.087-3.663-1.303,1.432-2.34,2.979-3.077,4.593-1.952-3.682-3.491-7.469-4.599-11.316-1.877,3.094-4.255,7.464-4.423,10.818-1.946-2.859-2.77-10.825-3.633-9.87-2.872,3.063-4.556,6.654-4.829,10.301-1.247-2.224-2.493-4.447-3.74-6.67-.329,2.222-.658,4.445-.986,6.667-2.083-1.609-4.167-3.218-6.25-4.827-.367,1.37-.734,2.74-1.102,4.11-1.538-1.545-2.556-3.336-2.949-5.192-1.883,1.227-3.132,2.912-3.475,4.686-1.792-3.665-2.499-7.582-2.063-11.439-3.113,3.972-4.975,8.41-5.421,12.919-2.042-1.686-3.765-3.557-5.114-5.549,.459,2.171,.918,4.342,1.377,6.514h-3.432c-.94-2.303-2.055-5.17-2.914-7.211-1.413,1.686-2.324,3.572-2.662,5.507-.997-1.699-1.994-3.398-2.991-5.097-1.35,1.573-2.7,3.147-4.05,4.72-.696-1.221-1.392-2.442-2.087-3.663-1.303,1.432-2.34,2.979-3.077,4.593-1.951-3.682-3.491-7.469-4.599-11.316-1.877,3.094-4.255,7.464-4.423,10.818-1.946-2.859-2.77-10.825-3.633-9.87-2.872,3.063-4.556,6.654-4.829,10.301-1.247-2.224-2.493-4.447-3.74-6.67-.329,2.222-.657,4.445-.986,6.667-2.083-1.609-4.167-3.218-6.25-4.827-.367,1.37-.734,2.74-1.102,4.11-1.538-1.545-2.556-3.336-2.949-5.192-1.883,1.227-3.132,2.912-3.475,4.686-1.792-3.665-2.499-7.582-2.063-11.439-3.113,3.972-4.975,8.41-5.421,12.919-2.042-1.686-2.109-3.032-2.723-5.369-.886,1.936-1.538,3.658-1.642,5.426-.884-2.101-1.768-4.202-2.652-6.303-1.413,1.686-2.324,3.572-2.662,5.507-.997-1.699-1.994-3.398-2.991-5.097-1.35,1.573-2.7,3.147-4.051,4.72-.696-1.221-1.391-2.442-2.087-3.663-1.303,1.432-2.34,2.979-3.077,4.593-1.951-3.682-3.491-7.469-4.599-11.316-1.877,3.094-4.255,7.464-4.422,10.818-1.946-2.859-2.77-10.825-3.633-9.87-2.872,3.063-4.555,6.654-4.829,10.301-1.247-2.224-2.493-4.447-3.74-6.67-.329,2.222-.657,4.445-.986,6.667-2.083-1.609-4.167-3.218-6.25-4.827-.367,1.37-.735,2.74-1.102,4.11-1.538-1.545-2.556-3.336-2.949-5.192-1.883,1.227-3.132,2.912-3.475,4.686-1.792-3.665-2.499-7.582-2.063-11.439-3.113,3.972-4.975,8.41-5.421,12.919-2.042-1.686-3.765-3.557-5.114-5.549,.459,2.171,.918,4.342,1.377,6.514h-.347v19.217H469.141v-18.372h.191Z" style="fill: rgb(235, 235, 235); transform-origin: 250.52px 86.306px;" id="el1mgzng49nbh" class="animable"></path><rect x="32.736" y="103.047" width="436.405" height="11.298" style="fill: rgb(240, 240, 240); transform-origin: 250.938px 108.696px;" id="elmshb87hp6f" class="animable"></rect></g><g id="el6gtj0ua67en" class="animable" style="transform-origin: 359.283px 127.887px;"><path d="M351.292,159.051s-4.476-26.803-2.373-44.496l4.309,44.496h-1.936Z" style="fill: rgb(224, 224, 224); transform-origin: 350.792px 136.803px;" id="elk0r6qzl7cs" class="animable"></path><path d="M361.112,159.051s4.476-26.803,2.373-44.496l-4.309,44.496h1.936Z" style="fill: rgb(224, 224, 224); transform-origin: 361.612px 136.803px;" id="eltzayjj5r9in" class="animable"></path><path d="M355.338,159.051s-3.165-44.151,2.689-62.328l-1.44,62.328h-1.248Z" style="fill: rgb(224, 224, 224); transform-origin: 356.255px 127.887px;" id="el650kjx0uzhq" class="animable"></path><path d="M363.448,159.051s.238-14.54,2.552-24.144c.741-3.075,2.214-5.926,4.21-8.38h0s-4.239,20.286-4.743,26.342c-.505,6.056-.908,6.182-.908,6.182h-1.11Z" style="fill: rgb(224, 224, 224); transform-origin: 366.829px 142.789px;" id="el2c82p64gnc8" class="animable"></path></g><g id="elus8mpzp415" class="animable" style="transform-origin: 172.922px 133.039px;"><path d="M165.233,163.024s-4.307-25.79-2.284-42.814l4.146,42.814h-1.862Z" style="fill: rgb(224, 224, 224); transform-origin: 164.752px 141.617px;" id="eliyt04wo0dh" class="animable"></path><path d="M174.681,163.024s4.307-25.79,2.284-42.814l-4.146,42.814h1.862Z" style="fill: rgb(224, 224, 224); transform-origin: 175.162px 141.617px;" id="elofc1xr1w0fl" class="animable"></path><path d="M169.125,163.024s-3.045-42.482,2.587-59.971l-1.386,59.971h-1.201Z" style="fill: rgb(224, 224, 224); transform-origin: 170.008px 133.039px;" id="el0ksbmdhifr8i" class="animable"></path><path d="M176.929,163.024s.229-13.99,2.456-23.231c.713-2.959,2.13-5.702,4.051-8.064h0s-4.079,19.519-4.564,25.346c-.486,5.827-.874,5.948-.874,5.948h-1.068Z" style="fill: rgb(224, 224, 224); transform-origin: 180.182px 147.377px;" id="elb8krczzdpj7" class="animable"></path></g><g id="el6hoigh19vxh" class="animable" style="transform-origin: 432.265px 111.188px;"><path d="M431.045,141.989s4.424-26.492,2.346-43.979l-4.259,43.979h1.913Z" style="fill: rgb(224, 224, 224); transform-origin: 431.539px 119.999px;" id="el4ncbuyes7qn" class="animable"></path><path d="M425.338,141.989s-3.128-43.638,2.658-61.603l-1.424,61.603h-1.234Z" style="fill: rgb(224, 224, 224); transform-origin: 426.245px 111.188px;" id="elmycru9mp8wp" class="animable"></path><path d="M433.354,141.989s.236-14.371,2.522-23.863c.732-3.04,2.188-5.857,4.161-8.283h0s-4.19,20.05-4.688,26.036c-.499,5.985-.898,6.11-.898,6.11h-1.097Z" style="fill: rgb(224, 224, 224); transform-origin: 436.696px 125.916px;" id="el1mrv0oq2pwh" class="animable"></path></g><g id="eleukbxti1lx" class="animable" style="transform-origin: 279.715px 115.915px;"><path d="M278.312,151.332s5.087-30.462,2.697-50.569l-4.897,50.569h2.2Z" style="fill: rgb(224, 224, 224); transform-origin: 278.88px 126.048px;" id="elci0v9brhc5" class="animable"></path><path d="M271.749,151.332s-3.597-50.177,3.056-70.835l-1.637,70.835h-1.419Z" style="fill: rgb(224, 224, 224); transform-origin: 272.792px 115.915px;" id="elskurffrbip" class="animable"></path><path d="M280.966,151.332s.271-16.524,2.9-27.439c.842-3.495,2.516-6.735,4.785-9.524h0s-4.817,23.055-5.391,29.937c-.574,6.882-1.032,7.026-1.032,7.026h-1.262Z" style="fill: rgb(224, 224, 224); transform-origin: 284.809px 132.851px;" id="el0hmrloubh3c7" class="animable"></path></g><g id="el7q04rj7r4m4" class="animable" style="transform-origin: 79.5436px 111.187px;"><path d="M78.363,140.982s4.279-25.626,2.269-42.541l-4.12,42.541h1.851Z" style="fill: rgb(224, 224, 224); transform-origin: 78.8405px 119.711px;" id="elsi1o00j5dnb" class="animable"></path><path d="M72.843,140.982s-3.026-42.211,2.571-59.59l-1.377,59.59h-1.194Z" style="fill: rgb(224, 224, 224); transform-origin: 73.7201px 111.187px;" id="elqpnyjmiumjs" class="animable"></path><path d="M80.596,140.982s.228-13.901,2.44-23.083c.708-2.94,2.117-5.666,4.025-8.012h0s-4.053,19.395-4.535,25.185c-.483,5.79-.868,5.91-.868,5.91h-1.061Z" style="fill: rgb(224, 224, 224); transform-origin: 83.8285px 125.434px;" id="el9vznedmstug" class="animable"></path></g><path d="M215.349,55.183c-1.088-.822-2.676-.915-3.853-.226-1.562-3.157-5.915-4.55-9.019-2.886-.81-3.401-4.161-6.016-7.657-5.974-3.496,.042-6.783,2.736-7.511,6.156-.116,.544-.192,1.139-.581,1.536-.632,.645-1.686,.428-2.586,.358-2.831-.221-5.68,1.767-6.45,4.501l38.992-.142c.341-1.32-.246-2.501-1.334-3.323Z" style="fill: rgb(240, 240, 240); transform-origin: 197.236px 52.3722px;" id="elv5wky7muifn" class="animable"></path><path d="M129.713,42.107c-1.253-.947-3.081-1.054-4.436-.26-1.799-3.635-6.811-5.239-10.386-3.324-.933-3.917-4.791-6.927-8.817-6.879-4.026,.048-7.811,3.151-8.649,7.089-.133,.626-.221,1.311-.669,1.769-.727,.743-1.941,.493-2.977,.413-3.26-.254-6.541,2.035-7.428,5.182l44.9-.163c.393-1.52-.284-2.88-1.537-3.826Z" style="fill: rgb(240, 240, 240); transform-origin: 108.857px 38.8702px;" id="el95iv8ugof14" class="animable"></path><path d="M426.849,53.481c-1.084-.819-2.665-.911-3.837-.225-1.555-3.143-5.89-4.531-8.982-2.874-.807-3.387-4.144-5.991-7.625-5.949-3.482,.042-6.755,2.725-7.48,6.131-.115,.541-.191,1.134-.579,1.53-.629,.642-1.679,.427-2.575,.357-2.82-.22-5.657,1.76-6.424,4.482l38.83-.141c.34-1.315-.245-2.49-1.329-3.309Z" style="fill: rgb(240, 240, 240); transform-origin: 408.81px 50.6827px;" id="el52m52steb3g" class="animable"></path><path d="M353.933,46.096c-1.574-1.189-3.87-1.324-5.573-.327-2.259-4.566-8.556-6.581-13.046-4.175-1.171-4.92-6.019-8.702-11.076-8.641-5.057,.061-9.812,3.958-10.865,8.905-.167,.786-.278,1.647-.84,2.222-.913,.933-2.438,.62-3.74,.518-4.095-.319-8.216,2.556-9.33,6.51l56.4-.205c.494-1.91-.356-3.618-1.93-4.807Z" style="fill: rgb(240, 240, 240); transform-origin: 327.733px 42.0301px;" id="elqwh5tjaqvgg" class="animable"></path></g><g id="freepik--Shadow--inject-35" class="animable" style="transform-origin: 290.489px 417.3px;"><path d="M387.325,417.3c0,3.387-43.355,6.132-96.836,6.132s-96.836-2.745-96.836-6.132,43.355-6.132,96.836-6.132,96.836,2.745,96.836,6.132Z" style="fill: rgb(245, 245, 245); transform-origin: 290.489px 417.3px;" id="el96skwfxk5ac" class="animable"></path></g><g id="freepik--Floor_2--inject-35" class="animable" style="transform-origin: 249.868px 195.889px;"><g id="ell55wanvgg3" class="animable" style="transform-origin: 249.868px 195.889px;"><g id="elmaa9dopex5a"><g style="opacity: 0.2; transform-origin: 250.099px 221.31px;" class="animable"><path d="M31.287,212.734c9.823,5.635,28.378,5.856,42.606,5.338,34.038-1.239,68.246-1.093,102.244,.435,.848,.038,1.647,.272,2.109,.661,2.994,2.517-2.033,3.575-5.695,3.789l-38.029,2.221c-3.695,.216-3.647,3.145,.052,3.337,40.177,2.091,80.773,1.791,120.831-.899,4.139-.278,4.899-3.414,1.017-4.244-12.259-2.622-26.069-3.301-39.369-3.885,12.49-2.926,26.68-2.283,40.236-1.729,54.062,2.208,108.437,2.143,162.481-.194,11.275-.488,42.322,.089,49.142-4.829H31.287Z" style="fill: rgb(64, 123, 255); transform-origin: 250.099px 221.31px;" id="elko9b0wdp3p" class="animable"></path></g></g><path d="M29.767,179.048c.062-.144,.128-.304,.192-.454v-.505h.213c1.122-2.68,2.503-6.177,3.552-8.624,1.634,1.914,2.688,4.055,3.079,6.252,1.153-1.929,2.307-3.858,3.46-5.786,1.562,1.786,3.123,3.573,4.685,5.359,.805-1.386,1.609-2.772,2.414-4.159,1.507,1.626,2.706,3.382,3.559,5.214,2.257-4.181,4.037-8.48,5.32-12.847,2.171,3.513,4.921,8.474,5.115,12.282,2.25-3.246,3.204-12.29,4.202-11.205,3.322,3.477,5.269,7.555,5.585,11.695,1.442-2.524,2.884-5.049,4.326-7.573,.38,2.523,.76,5.046,1.141,7.57,2.41-1.827,4.819-3.654,7.229-5.48,.425,1.555,.85,3.111,1.274,4.666,1.779-1.754,2.956-3.788,3.411-5.895,2.178,1.393,3.623,3.306,4.019,5.32,2.073-4.161,2.89-8.608,2.386-12.987,3.6,4.509,5.754,9.548,6.269,14.667,2.361-1.914,2.44-3.442,3.15-6.095,1.024,2.197,1.779,4.153,1.899,6.16,1.023-2.385,2.045-4.771,3.068-7.156,1.634,1.914,2.688,4.055,3.079,6.252,1.153-1.929,2.307-3.858,3.46-5.786,1.561,1.786,3.123,3.573,4.685,5.359,.805-1.386,1.609-2.772,2.414-4.159,1.507,1.626,2.706,3.382,3.559,5.214,2.257-4.181,4.037-8.48,5.319-12.847,2.171,3.513,4.921,8.474,5.115,12.282,2.25-3.246,3.204-12.29,4.202-11.205,3.322,3.477,5.269,7.555,5.585,11.695,1.442-2.524,2.884-5.049,4.326-7.573,.38,2.523,.76,5.046,1.141,7.57,2.41-1.827,4.819-3.654,7.229-5.48,.425,1.555,.849,3.111,1.274,4.666,1.779-1.754,2.956-3.788,3.411-5.895,2.178,1.393,3.623,3.306,4.019,5.32,2.073-4.161,2.89-8.608,2.386-12.987,3.6,4.509,5.754,9.548,6.27,14.667,2.361-1.914,4.355-4.038,5.915-6.3-.562,2.611-1.124,5.221-1.687,7.832h21.897c.946-2.615,2.067-5.869,2.931-8.186,1.421,1.914,2.338,4.055,2.678,6.252,1.003-1.929,2.006-3.858,3.009-5.786,1.358,1.786,2.716,3.573,4.074,5.359,.7-1.386,1.4-2.773,2.1-4.159,1.31,1.626,2.353,3.382,3.095,5.214,1.963-4.181,3.511-8.48,4.626-12.847,1.888,3.513,4.28,8.474,4.449,12.282,1.957-3.246,2.787-12.289,3.655-11.205,2.889,3.477,4.582,7.555,4.857,11.695,1.254-2.524,2.508-5.049,3.762-7.573,.331,2.523,.661,5.046,.992,7.569,2.096-1.827,4.191-3.654,6.287-5.48l1.108,4.666c1.547-1.754,2.571-3.788,2.966-5.895,1.894,1.393,3.151,3.306,3.495,5.32,1.803-4.16,2.514-8.608,2.075-12.987,3.131,4.509,5.004,9.548,5.453,14.667,2.054-1.914,2.122-3.442,2.739-6.095,.891,2.198,1.547,4.153,1.651,6.16,.889-2.385,1.779-4.771,2.668-7.156,1.421,1.914,2.338,4.055,2.678,6.252,1.003-1.929,2.006-3.858,3.009-5.786,1.358,1.786,2.716,3.573,4.074,5.359,.7-1.386,1.4-2.773,2.1-4.159,1.31,1.626,2.353,3.382,3.095,5.214,1.963-4.181,3.511-8.48,4.626-12.847,1.888,3.513,4.28,8.474,4.449,12.282,1.957-3.246,2.787-12.289,3.655-11.205,2.889,3.477,4.582,7.555,4.857,11.695,1.254-2.524,2.508-5.049,3.762-7.573,.331,2.523,.661,5.046,.992,7.569,2.096-1.827,4.191-3.654,6.287-5.48l1.108,4.666c1.547-1.754,2.571-3.788,2.966-5.895,1.894,1.393,3.15,3.306,3.495,5.32,1.803-4.16,2.514-8.608,2.075-12.987,3.131,4.509,5.004,9.548,5.453,14.667,2.054-1.914,3.787-4.038,5.144-6.3-.462,2.465-.923,4.93-1.385,7.395h3.452c.946-2.615,2.067-5.869,2.931-8.186,1.421,1.914,2.338,4.055,2.678,6.252,1.003-1.929,2.006-3.858,3.009-5.786,1.358,1.786,2.716,3.573,4.074,5.359,.7-1.386,1.4-2.773,2.1-4.159,1.31,1.626,2.353,3.382,3.095,5.214,1.963-4.181,3.511-8.48,4.626-12.847,1.888,3.513,4.28,8.474,4.449,12.282,1.957-3.246,2.787-12.289,3.654-11.205,2.889,3.477,4.582,7.555,4.857,11.695,1.254-2.524,2.508-5.049,3.762-7.573,.331,2.523,.661,5.046,.992,7.569,2.096-1.827,4.191-3.654,6.287-5.48,.369,1.555,.739,3.111,1.108,4.666,1.547-1.754,2.571-3.788,2.966-5.895,1.894,1.393,3.15,3.306,3.495,5.32,1.803-4.16,2.514-8.608,2.075-12.987,3.131,4.509,5.004,9.548,5.453,14.667,2.054-1.914,2.122-3.442,2.739-6.095,.891,2.198,1.547,4.153,1.651,6.16,.889-2.385,1.779-4.771,2.668-7.156,1.421,1.914,2.338,4.055,2.678,6.252,1.003-1.929,2.006-3.858,3.009-5.786,1.358,1.786,2.716,3.573,4.074,5.359,.7-1.386,1.4-2.773,2.1-4.159,1.31,1.626,2.353,3.382,3.095,5.214,1.963-4.181,3.511-8.48,4.626-12.847,1.888,3.513,4.28,8.474,4.449,12.282,1.957-3.246,2.787-12.289,3.654-11.205,2.889,3.477,4.582,7.555,4.857,11.695,1.254-2.524,2.508-5.049,3.762-7.573,.331,2.523,.661,5.046,.992,7.569,2.096-1.827,4.191-3.654,6.287-5.48,.369,1.555,.739,3.111,1.108,4.666,1.547-1.754,2.571-3.788,2.966-5.895,1.894,1.393,3.151,3.306,3.495,5.32,1.803-4.16,2.514-8.608,2.075-12.987,3.131,4.509,5.004,9.548,5.453,14.667,2.054-1.914,3.788-4.038,5.144-6.3-.462,2.465-.923,4.93-1.385,7.395h.349v21.817H29.959v-20.858h-.192Z" style="fill: rgb(38, 50, 56); transform-origin: 249.868px 180.902px;" id="elreq1hewxcyl" class="animable"></path><g id="eledpk70moby"><g style="opacity: 0.3; transform-origin: 249.868px 180.902px;" class="animable"><path d="M29.767,179.048c.062-.144,.128-.304,.192-.454v-.505h.213c1.122-2.68,2.503-6.177,3.552-8.624,1.634,1.914,2.688,4.055,3.079,6.252,1.153-1.929,2.307-3.858,3.46-5.786,1.562,1.786,3.123,3.573,4.685,5.359,.805-1.386,1.609-2.772,2.414-4.159,1.507,1.626,2.706,3.382,3.559,5.214,2.257-4.181,4.037-8.48,5.32-12.847,2.171,3.513,4.921,8.474,5.115,12.282,2.25-3.246,3.204-12.29,4.202-11.205,3.322,3.477,5.269,7.555,5.585,11.695,1.442-2.524,2.884-5.049,4.326-7.573,.38,2.523,.76,5.046,1.141,7.57,2.41-1.827,4.819-3.654,7.229-5.48,.425,1.555,.85,3.111,1.274,4.666,1.779-1.754,2.956-3.788,3.411-5.895,2.178,1.393,3.623,3.306,4.019,5.32,2.073-4.161,2.89-8.608,2.386-12.987,3.6,4.509,5.754,9.548,6.269,14.667,2.361-1.914,2.44-3.442,3.15-6.095,1.024,2.197,1.779,4.153,1.899,6.16,1.023-2.385,2.045-4.771,3.068-7.156,1.634,1.914,2.688,4.055,3.079,6.252,1.153-1.929,2.307-3.858,3.46-5.786,1.561,1.786,3.123,3.573,4.685,5.359,.805-1.386,1.609-2.772,2.414-4.159,1.507,1.626,2.706,3.382,3.559,5.214,2.257-4.181,4.037-8.48,5.319-12.847,2.171,3.513,4.921,8.474,5.115,12.282,2.25-3.246,3.204-12.29,4.202-11.205,3.322,3.477,5.269,7.555,5.585,11.695,1.442-2.524,2.884-5.049,4.326-7.573,.38,2.523,.76,5.046,1.141,7.57,2.41-1.827,4.819-3.654,7.229-5.48,.425,1.555,.849,3.111,1.274,4.666,1.779-1.754,2.956-3.788,3.411-5.895,2.178,1.393,3.623,3.306,4.019,5.32,2.073-4.161,2.89-8.608,2.386-12.987,3.6,4.509,5.754,9.548,6.27,14.667,2.361-1.914,4.355-4.038,5.915-6.3-.562,2.611-1.124,5.221-1.687,7.832h21.897c.946-2.615,2.067-5.869,2.931-8.186,1.421,1.914,2.338,4.055,2.678,6.252,1.003-1.929,2.006-3.858,3.009-5.786,1.358,1.786,2.716,3.573,4.074,5.359,.7-1.386,1.4-2.773,2.1-4.159,1.31,1.626,2.353,3.382,3.095,5.214,1.963-4.181,3.511-8.48,4.626-12.847,1.888,3.513,4.28,8.474,4.449,12.282,1.957-3.246,2.787-12.289,3.655-11.205,2.889,3.477,4.582,7.555,4.857,11.695,1.254-2.524,2.508-5.049,3.762-7.573,.331,2.523,.661,5.046,.992,7.569,2.096-1.827,4.191-3.654,6.287-5.48l1.108,4.666c1.547-1.754,2.571-3.788,2.966-5.895,1.894,1.393,3.151,3.306,3.495,5.32,1.803-4.16,2.514-8.608,2.075-12.987,3.131,4.509,5.004,9.548,5.453,14.667,2.054-1.914,2.122-3.442,2.739-6.095,.891,2.198,1.547,4.153,1.651,6.16,.889-2.385,1.779-4.771,2.668-7.156,1.421,1.914,2.338,4.055,2.678,6.252,1.003-1.929,2.006-3.858,3.009-5.786,1.358,1.786,2.716,3.573,4.074,5.359,.7-1.386,1.4-2.773,2.1-4.159,1.31,1.626,2.353,3.382,3.095,5.214,1.963-4.181,3.511-8.48,4.626-12.847,1.888,3.513,4.28,8.474,4.449,12.282,1.957-3.246,2.787-12.289,3.655-11.205,2.889,3.477,4.582,7.555,4.857,11.695,1.254-2.524,2.508-5.049,3.762-7.573,.331,2.523,.661,5.046,.992,7.569,2.096-1.827,4.191-3.654,6.287-5.48l1.108,4.666c1.547-1.754,2.571-3.788,2.966-5.895,1.894,1.393,3.15,3.306,3.495,5.32,1.803-4.16,2.514-8.608,2.075-12.987,3.131,4.509,5.004,9.548,5.453,14.667,2.054-1.914,3.787-4.038,5.144-6.3-.462,2.465-.923,4.93-1.385,7.395h3.452c.946-2.615,2.067-5.869,2.931-8.186,1.421,1.914,2.338,4.055,2.678,6.252,1.003-1.929,2.006-3.858,3.009-5.786,1.358,1.786,2.716,3.573,4.074,5.359,.7-1.386,1.4-2.773,2.1-4.159,1.31,1.626,2.353,3.382,3.095,5.214,1.963-4.181,3.511-8.48,4.626-12.847,1.888,3.513,4.28,8.474,4.449,12.282,1.957-3.246,2.787-12.289,3.654-11.205,2.889,3.477,4.582,7.555,4.857,11.695,1.254-2.524,2.508-5.049,3.762-7.573,.331,2.523,.661,5.046,.992,7.569,2.096-1.827,4.191-3.654,6.287-5.48,.369,1.555,.739,3.111,1.108,4.666,1.547-1.754,2.571-3.788,2.966-5.895,1.894,1.393,3.15,3.306,3.495,5.32,1.803-4.16,2.514-8.608,2.075-12.987,3.131,4.509,5.004,9.548,5.453,14.667,2.054-1.914,2.122-3.442,2.739-6.095,.891,2.198,1.547,4.153,1.651,6.16,.889-2.385,1.779-4.771,2.668-7.156,1.421,1.914,2.338,4.055,2.678,6.252,1.003-1.929,2.006-3.858,3.009-5.786,1.358,1.786,2.716,3.573,4.074,5.359,.7-1.386,1.4-2.773,2.1-4.159,1.31,1.626,2.353,3.382,3.095,5.214,1.963-4.181,3.511-8.48,4.626-12.847,1.888,3.513,4.28,8.474,4.449,12.282,1.957-3.246,2.787-12.289,3.654-11.205,2.889,3.477,4.582,7.555,4.857,11.695,1.254-2.524,2.508-5.049,3.762-7.573,.331,2.523,.661,5.046,.992,7.569,2.096-1.827,4.191-3.654,6.287-5.48,.369,1.555,.739,3.111,1.108,4.666,1.547-1.754,2.571-3.788,2.966-5.895,1.894,1.393,3.151,3.306,3.495,5.32,1.803-4.16,2.514-8.608,2.075-12.987,3.131,4.509,5.004,9.548,5.453,14.667,2.054-1.914,3.788-4.038,5.144-6.3-.462,2.465-.923,4.93-1.385,7.395h.349v21.817H29.959v-20.858h-.192Z" style="fill: rgb(255, 255, 255); transform-origin: 249.868px 180.902px;" id="eliqjwn0qk3g" class="animable"></path></g></g><g id="el2lsw3pclgc8"><rect x="29.959" y="199.907" width="438.976" height="12.827" style="fill: rgb(185, 121, 100); transform-origin: 249.447px 206.321px; transform: rotate(180deg);" class="animable"></rect></g></g></g><g id="freepik--Plants_2--inject-35" class="animable animator-active" style="transform-origin: 236.882px 228.461px;"><g id="el7fdpysarmv6" class="animable" style="transform-origin: 142.133px 216.365px;"><g id="eldg2wotxqd6j" class="animable" style="transform-origin: 143.772px 215.97px;"><path d="M136.052,254.153s-5.484-32.84-2.908-54.518l5.28,54.518h-2.372Z" style="fill: rgb(64, 123, 255); transform-origin: 135.44px 226.894px;" id="elu9v517f4xlq" class="animable"></path><path d="M141.009,254.153s-3.877-54.095,3.294-76.366l-1.765,76.366h-1.53Z" style="fill: rgb(64, 123, 255); transform-origin: 142.133px 215.97px;" id="el76zrxbc9ihb" class="animable"></path><path d="M146.803,254.153s.292-17.814,3.127-29.581c.908-3.768,2.713-7.26,5.158-10.268h0s-5.194,24.855-5.812,32.275-1.113,7.574-1.113,7.574h-1.36Z" style="fill: rgb(64, 123, 255); transform-origin: 150.945px 234.229px;" id="el65xd5q2tx5e" class="animable"></path></g><path d="M161.428,254.942h-38.59c-.138,0-.25-.112-.25-.25s.112-.25,.25-.25h38.59c.138,0,.25,.112,.25,.25s-.112,.25-.25,.25Z" style="fill: rgb(38, 50, 56); transform-origin: 142.133px 254.692px;" id="elju5strgfr7" class="animable"></path></g><g id="els0f847l2qu9" class="animable" style="transform-origin: 335.97px 238.398px;"><g id="el3h6nnfje4ff" class="animable" style="transform-origin: 339.68px 238.003px;"><path d="M329.889,276.186s-5.484-32.84-2.908-54.518l5.28,54.518h-2.372Z" style="fill: rgb(64, 123, 255); transform-origin: 329.277px 248.927px;" id="elf0wl74w1vs6" class="animable"></path><path d="M341.92,276.186s5.484-32.84,2.908-54.518l-5.28,54.518h2.372Z" style="fill: rgb(64, 123, 255); transform-origin: 342.532px 248.927px;" id="elrb60nsubyn" class="animable"></path><path d="M334.846,276.186s-3.877-54.095,3.294-76.366l-1.765,76.366h-1.53Z" style="fill: rgb(64, 123, 255); transform-origin: 335.97px 238.003px;" id="elincv6d8l3pc" class="animable"></path><path d="M344.782,276.186s.292-17.814,3.127-29.581c.908-3.768,2.713-7.261,5.158-10.268h0s-5.194,24.855-5.812,32.275c-.618,7.419-1.113,7.574-1.113,7.574h-1.36Z" style="fill: rgb(64, 123, 255); transform-origin: 348.925px 256.262px;" id="el8duqixn3058" class="animable"></path></g><path d="M355.265,276.976h-38.59c-.138,0-.25-.112-.25-.25s.112-.25,.25-.25h38.59c.138,0,.25,.112,.25,.25s-.112,.25-.25,.25Z" style="fill: rgb(38, 50, 56); transform-origin: 335.97px 276.726px;" id="elxccsnoj5s5b" class="animable"></path></g><g id="elifn0izfjy5" class="animable" style="transform-origin: 421.253px 223.952px;"><g id="elbfppgoxpgf" class="animable" style="transform-origin: 424.963px 223.558px;"><path d="M415.172,261.741s-5.484-32.84-2.908-54.518l5.28,54.518h-2.372Z" style="fill: rgb(64, 123, 255); transform-origin: 414.56px 234.482px;" id="eldybhlc9hftt" class="animable"></path><path d="M427.203,261.741s5.484-32.84,2.908-54.518l-5.28,54.518h2.372Z" style="fill: rgb(64, 123, 255); transform-origin: 427.815px 234.482px;" id="elf9vk8t0uzkp" class="animable"></path><path d="M420.129,261.741s-3.877-54.095,3.294-76.366l-1.765,76.366h-1.53Z" style="fill: rgb(64, 123, 255); transform-origin: 421.253px 223.558px;" id="el8o3tuqjbcrd" class="animable"></path><path d="M430.065,261.741s.292-17.814,3.127-29.581c.908-3.768,2.713-7.261,5.158-10.268h0s-5.194,24.855-5.812,32.275c-.618,7.42-1.113,7.574-1.113,7.574h-1.36Z" style="fill: rgb(64, 123, 255); transform-origin: 434.208px 241.816px;" id="elcd11ilqlwnw" class="animable"></path></g><path d="M440.548,262.53h-38.591c-.138,0-.25-.112-.25-.25s.112-.25,.25-.25h38.591c.138,0,.25,.112,.25,.25s-.112,.25-.25,.25Z" style="fill: rgb(38, 50, 56); transform-origin: 421.253px 262.28px;" id="eldbvr3j9saz" class="animable"></path></g><g id="elk8xj06gsura" class="animable" style="transform-origin: 52.51px 240.557px;"><g id="eloa8c6qoop69" class="animable" style="transform-origin: 54.1488px 240.162px;"><path d="M46.429,278.345s-5.484-32.84-2.908-54.518l5.28,54.518h-2.372Z" style="fill: rgb(64, 123, 255); transform-origin: 45.8168px 251.086px;" id="elxn8euqw47j" class="animable"></path><path d="M51.386,278.345s-3.877-54.095,3.294-76.366l-1.765,76.366h-1.53Z" style="fill: rgb(64, 123, 255); transform-origin: 52.5098px 240.162px;" id="elsidpspm1c2f" class="animable"></path><path d="M57.18,278.345s.292-17.814,3.127-29.581c.908-3.768,2.713-7.26,5.158-10.268h0s-5.194,24.855-5.812,32.275-1.113,7.574-1.113,7.574h-1.36Z" style="fill: rgb(64, 123, 255); transform-origin: 61.3225px 258.421px;" id="el45zp39x55bc" class="animable"></path></g><path d="M71.805,279.135H33.215c-.138,0-.25-.112-.25-.25s.112-.25,.25-.25h38.59c.138,0,.25,.112,.25,.25s-.112,.25-.25,.25Z" style="fill: rgb(38, 50, 56); transform-origin: 52.51px 278.885px;" id="el88w1k3oi8fn" class="animable"></path></g></g><g id="freepik--Floor_1--inject-35" class="animable" style="transform-origin: 254.556px 323.301px;"><g id="elz9xq2qhvxvi" class="animable" style="transform-origin: 254.556px 323.301px;"><g id="el0rbavnwwcrg"><g style="opacity: 0.2; transform-origin: 253.593px 346.603px;" class="animable"><path d="M39.741,332.716c10.075,10.823,26.827,10.156,41.421,9.162,34.914-2.38,70.002-2.1,104.876,.836,.87,.073,1.689,.522,2.164,1.27,3.071,4.834-2.085,6.866-5.842,7.277l-39.008,4.265c-3.79,.415-3.741,6.04,.053,6.41,41.211,4.015,82.852,3.439,123.941-1.727,4.245-.534,5.025-6.557,1.043-8.152-12.574-5.036-26.74-6.34-40.382-7.461,12.811-5.62,27.366-4.384,41.271-3.321,55.454,4.24,111.228,4.115,166.663-.374,11.565-.937,24.509-2.817,31.505-12.264l-427.706,4.079Z" style="fill: rgb(64, 123, 255); transform-origin: 253.593px 346.603px;" id="eliqcp7sejwl9" class="animable"></path></g></g><path d="M480.321,299.19c-.063-.144-.132-.304-.197-.454v-.504h-.219c-1.151-2.68-2.568-6.177-3.644-8.624-1.676,1.914-2.757,4.056-3.158,6.252-1.183-1.929-2.366-3.858-3.549-5.787-1.602,1.786-3.204,3.573-4.806,5.359-.825-1.386-1.651-2.772-2.476-4.159-1.546,1.626-2.776,3.382-3.65,5.214-2.315-4.181-4.141-8.48-5.456-12.847-2.227,3.513-5.048,8.474-5.247,12.282-2.308-3.246-3.287-12.289-4.31-11.205-3.407,3.477-5.405,7.555-5.729,11.695-1.479-2.524-2.958-5.049-4.437-7.573-.39,2.523-.78,5.046-1.17,7.57-2.472-1.827-4.943-3.654-7.415-5.48-.436,1.555-.871,3.111-1.307,4.666-1.825-1.754-3.032-3.788-3.498-5.895-2.234,1.393-3.716,3.306-4.122,5.32-2.127-4.16-2.965-8.608-2.448-12.987-3.693,4.509-5.902,9.548-6.431,14.667-2.422-1.915-2.503-3.442-3.231-6.095-1.051,2.198-1.824,4.153-1.948,6.16-1.049-2.385-2.098-4.771-3.147-7.156-1.676,1.914-2.757,4.056-3.158,6.252-1.183-1.929-2.366-3.858-3.549-5.787-1.602,1.786-3.203,3.573-4.805,5.359-.826-1.386-1.651-2.772-2.476-4.159-1.546,1.626-2.776,3.382-3.65,5.214-2.315-4.181-4.141-8.48-5.456-12.847-2.227,3.513-5.048,8.474-5.247,12.282-2.308-3.246-3.287-12.289-4.31-11.205-3.407,3.477-5.405,7.555-5.729,11.695-1.479-2.524-2.958-5.049-4.437-7.573-.39,2.523-.78,5.046-1.17,7.57-2.472-1.827-4.943-3.654-7.415-5.48l-1.307,4.666c-1.825-1.754-3.032-3.788-3.498-5.895-2.234,1.393-3.716,3.306-4.123,5.32-2.126-4.16-2.964-8.608-2.447-12.987-3.693,4.509-5.902,9.548-6.431,14.667-2.422-1.915-4.467-4.038-6.067-6.3,.577,2.611,1.153,5.221,1.73,7.832h-22.461c-.97-2.615-2.12-5.87-3.006-8.186-1.457,1.914-2.398,4.056-2.747,6.252-1.029-1.929-2.058-3.858-3.086-5.786-1.393,1.786-2.786,3.573-4.179,5.359-.718-1.386-1.436-2.773-2.154-4.159-1.344,1.625-2.414,3.382-3.175,5.214-2.013-4.181-3.602-8.48-4.745-12.847-1.936,3.513-4.39,8.474-4.563,12.282-2.007-3.246-2.858-12.29-3.749-11.205-2.963,3.477-4.7,7.555-4.982,11.695-1.286-2.524-2.573-5.049-3.859-7.573-.339,2.523-.678,5.046-1.017,7.57-2.15-1.827-4.299-3.654-6.449-5.48-.379,1.555-.758,3.111-1.137,4.666-1.587-1.754-2.637-3.788-3.042-5.895-1.943,1.393-3.232,3.306-3.585,5.32-1.849-4.16-2.578-8.608-2.128-12.987-3.212,4.509-5.133,9.549-5.593,14.667-2.106-1.914-2.177-3.442-2.81-6.095-.914,2.197-1.587,4.153-1.694,6.16-.912-2.385-1.824-4.771-2.737-7.156-1.457,1.914-2.398,4.056-2.747,6.252-1.029-1.929-2.058-3.858-3.086-5.786-1.393,1.786-2.786,3.573-4.179,5.359-.718-1.386-1.436-2.773-2.154-4.159-1.344,1.625-2.414,3.382-3.175,5.214-2.013-4.181-3.602-8.48-4.745-12.847-1.936,3.513-4.39,8.474-4.563,12.282-2.007-3.246-2.858-12.29-3.749-11.205-2.963,3.477-4.7,7.555-4.982,11.695-1.286-2.524-2.573-5.049-3.859-7.573-.339,2.523-.678,5.046-1.017,7.57-2.15-1.827-4.299-3.654-6.449-5.48-.379,1.555-.758,3.111-1.137,4.666-1.587-1.754-2.637-3.788-3.042-5.895-1.943,1.393-3.232,3.306-3.585,5.32-1.849-4.16-2.578-8.608-2.129-12.987-3.212,4.509-5.133,9.549-5.593,14.667-2.106-1.914-3.885-4.038-5.276-6.3,.474,2.465,.947,4.93,1.421,7.395h-3.541c-.97-2.615-2.12-5.87-3.006-8.186-1.457,1.914-2.398,4.056-2.747,6.252-1.029-1.929-2.058-3.858-3.086-5.786-1.393,1.786-2.786,3.573-4.179,5.359-.718-1.386-1.436-2.773-2.154-4.159-1.344,1.625-2.414,3.382-3.175,5.214-2.013-4.181-3.602-8.48-4.745-12.847-1.936,3.513-4.39,8.474-4.563,12.282-2.007-3.246-2.858-12.29-3.749-11.205-2.963,3.477-4.7,7.555-4.982,11.695-1.286-2.524-2.573-5.049-3.859-7.573-.339,2.523-.678,5.046-1.017,7.57-2.15-1.827-4.299-3.654-6.449-5.48-.379,1.555-.758,3.111-1.137,4.666-1.587-1.754-2.637-3.788-3.042-5.895-1.943,1.393-3.232,3.306-3.585,5.32-1.849-4.16-2.578-8.608-2.129-12.987-3.212,4.509-5.133,9.549-5.593,14.667-2.106-1.914-2.176-3.442-2.81-6.095-.914,2.197-1.587,4.153-1.694,6.16-.912-2.385-1.824-4.771-2.737-7.156-1.457,1.914-2.398,4.056-2.747,6.252l-3.086-5.786c-1.393,1.786-2.786,3.573-4.179,5.359-.718-1.386-1.436-2.773-2.154-4.159-1.344,1.625-2.414,3.382-3.175,5.214-2.014-4.181-3.602-8.48-4.745-12.847-1.937,3.513-4.39,8.474-4.563,12.282-2.007-3.246-2.858-12.29-3.749-11.205-2.963,3.477-4.7,7.555-4.983,11.695-1.286-2.524-2.573-5.049-3.859-7.573-.339,2.523-.678,5.046-1.017,7.57-2.149-1.827-4.299-3.654-6.449-5.48-.379,1.555-.758,3.111-1.137,4.666-1.587-1.754-2.637-3.788-3.042-5.895-1.943,1.393-3.232,3.306-3.586,5.32-1.849-4.16-2.578-8.608-2.128-12.987-3.212,4.509-5.133,9.549-5.593,14.667-2.106-1.914-3.885-4.038-5.276-6.3,.474,2.465,.947,4.93,1.421,7.395h-.358v21.817H480.124v-20.858h.197Z" style="fill: rgb(38, 50, 56); transform-origin: 254.556px 301.046px;" id="el8yfeg9jcoj7" class="animable"></path><g id="elanncs1b21ga"><g style="opacity: 0.3; transform-origin: 254.556px 301.046px;" class="animable"><path d="M480.321,299.19c-.063-.144-.132-.304-.197-.454v-.504h-.219c-1.151-2.68-2.568-6.177-3.644-8.624-1.676,1.914-2.757,4.056-3.158,6.252-1.183-1.929-2.366-3.858-3.549-5.787-1.602,1.786-3.204,3.573-4.806,5.359-.825-1.386-1.651-2.772-2.476-4.159-1.546,1.626-2.776,3.382-3.65,5.214-2.315-4.181-4.141-8.48-5.456-12.847-2.227,3.513-5.048,8.474-5.247,12.282-2.308-3.246-3.287-12.289-4.31-11.205-3.407,3.477-5.405,7.555-5.729,11.695-1.479-2.524-2.958-5.049-4.437-7.573-.39,2.523-.78,5.046-1.17,7.57-2.472-1.827-4.943-3.654-7.415-5.48-.436,1.555-.871,3.111-1.307,4.666-1.825-1.754-3.032-3.788-3.498-5.895-2.234,1.393-3.716,3.306-4.122,5.32-2.127-4.16-2.965-8.608-2.448-12.987-3.693,4.509-5.902,9.548-6.431,14.667-2.422-1.915-2.503-3.442-3.231-6.095-1.051,2.198-1.824,4.153-1.948,6.16-1.049-2.385-2.098-4.771-3.147-7.156-1.676,1.914-2.757,4.056-3.158,6.252-1.183-1.929-2.366-3.858-3.549-5.787-1.602,1.786-3.203,3.573-4.805,5.359-.826-1.386-1.651-2.772-2.476-4.159-1.546,1.626-2.776,3.382-3.65,5.214-2.315-4.181-4.141-8.48-5.456-12.847-2.227,3.513-5.048,8.474-5.247,12.282-2.308-3.246-3.287-12.289-4.31-11.205-3.407,3.477-5.405,7.555-5.729,11.695-1.479-2.524-2.958-5.049-4.437-7.573-.39,2.523-.78,5.046-1.17,7.57-2.472-1.827-4.943-3.654-7.415-5.48l-1.307,4.666c-1.825-1.754-3.032-3.788-3.498-5.895-2.234,1.393-3.716,3.306-4.123,5.32-2.126-4.16-2.964-8.608-2.447-12.987-3.693,4.509-5.902,9.548-6.431,14.667-2.422-1.915-4.467-4.038-6.067-6.3,.577,2.611,1.153,5.221,1.73,7.832h-22.461c-.97-2.615-2.12-5.87-3.006-8.186-1.457,1.914-2.398,4.056-2.747,6.252-1.029-1.929-2.058-3.858-3.086-5.786-1.393,1.786-2.786,3.573-4.179,5.359-.718-1.386-1.436-2.773-2.154-4.159-1.344,1.625-2.414,3.382-3.175,5.214-2.013-4.181-3.602-8.48-4.745-12.847-1.936,3.513-4.39,8.474-4.563,12.282-2.007-3.246-2.858-12.29-3.749-11.205-2.963,3.477-4.7,7.555-4.982,11.695-1.286-2.524-2.573-5.049-3.859-7.573-.339,2.523-.678,5.046-1.017,7.57-2.15-1.827-4.299-3.654-6.449-5.48-.379,1.555-.758,3.111-1.137,4.666-1.587-1.754-2.637-3.788-3.042-5.895-1.943,1.393-3.232,3.306-3.585,5.32-1.849-4.16-2.578-8.608-2.128-12.987-3.212,4.509-5.133,9.549-5.593,14.667-2.106-1.914-2.177-3.442-2.81-6.095-.914,2.197-1.587,4.153-1.694,6.16-.912-2.385-1.824-4.771-2.737-7.156-1.457,1.914-2.398,4.056-2.747,6.252-1.029-1.929-2.058-3.858-3.086-5.786-1.393,1.786-2.786,3.573-4.179,5.359-.718-1.386-1.436-2.773-2.154-4.159-1.344,1.625-2.414,3.382-3.175,5.214-2.013-4.181-3.602-8.48-4.745-12.847-1.936,3.513-4.39,8.474-4.563,12.282-2.007-3.246-2.858-12.29-3.749-11.205-2.963,3.477-4.7,7.555-4.982,11.695-1.286-2.524-2.573-5.049-3.859-7.573-.339,2.523-.678,5.046-1.017,7.57-2.15-1.827-4.299-3.654-6.449-5.48-.379,1.555-.758,3.111-1.137,4.666-1.587-1.754-2.637-3.788-3.042-5.895-1.943,1.393-3.232,3.306-3.585,5.32-1.849-4.16-2.578-8.608-2.129-12.987-3.212,4.509-5.133,9.549-5.593,14.667-2.106-1.914-3.885-4.038-5.276-6.3,.474,2.465,.947,4.93,1.421,7.395h-3.541c-.97-2.615-2.12-5.87-3.006-8.186-1.457,1.914-2.398,4.056-2.747,6.252-1.029-1.929-2.058-3.858-3.086-5.786-1.393,1.786-2.786,3.573-4.179,5.359-.718-1.386-1.436-2.773-2.154-4.159-1.344,1.625-2.414,3.382-3.175,5.214-2.013-4.181-3.602-8.48-4.745-12.847-1.936,3.513-4.39,8.474-4.563,12.282-2.007-3.246-2.858-12.29-3.749-11.205-2.963,3.477-4.7,7.555-4.982,11.695-1.286-2.524-2.573-5.049-3.859-7.573-.339,2.523-.678,5.046-1.017,7.57-2.15-1.827-4.299-3.654-6.449-5.48-.379,1.555-.758,3.111-1.137,4.666-1.587-1.754-2.637-3.788-3.042-5.895-1.943,1.393-3.232,3.306-3.585,5.32-1.849-4.16-2.578-8.608-2.129-12.987-3.212,4.509-5.133,9.549-5.593,14.667-2.106-1.914-2.176-3.442-2.81-6.095-.914,2.197-1.587,4.153-1.694,6.16-.912-2.385-1.824-4.771-2.737-7.156-1.457,1.914-2.398,4.056-2.747,6.252l-3.086-5.786c-1.393,1.786-2.786,3.573-4.179,5.359-.718-1.386-1.436-2.773-2.154-4.159-1.344,1.625-2.414,3.382-3.175,5.214-2.014-4.181-3.602-8.48-4.745-12.847-1.937,3.513-4.39,8.474-4.563,12.282-2.007-3.246-2.858-12.29-3.749-11.205-2.963,3.477-4.7,7.555-4.983,11.695-1.286-2.524-2.573-5.049-3.859-7.573-.339,2.523-.678,5.046-1.017,7.57-2.149-1.827-4.299-3.654-6.449-5.48-.379,1.555-.758,3.111-1.137,4.666-1.587-1.754-2.637-3.788-3.042-5.895-1.943,1.393-3.232,3.306-3.586,5.32-1.849-4.16-2.578-8.608-2.128-12.987-3.212,4.509-5.133,9.549-5.593,14.667-2.106-1.914-3.885-4.038-5.276-6.3,.474,2.465,.947,4.93,1.421,7.395h-.358v21.817H480.124v-20.858h.197Z" style="fill: rgb(255, 255, 255); transform-origin: 254.556px 301.046px;" id="el6sz7qt9c42u" class="animable"></path></g></g><rect x="29.85" y="320.048" width="450.274" height="12.827" style="fill: rgb(185, 121, 100); transform-origin: 254.987px 326.462px;" id="el7fzf6jf718a" class="animable"></rect></g></g><g id="freepik--Plants_1--inject-35" class="animable" style="transform-origin: 251.606px 383.772px;"><g id="elt1kpayru5dh" class="animable" style="transform-origin: 287.502px 432.441px;"><g id="elsb81gu61q2e"><g style="opacity: 0.3; transform-origin: 291.844px 470.428px;" class="animable"><path d="M307.751,472.45c-.56-.328-1.226-.405-1.871-.476-1.47-.162-2.941-.324-4.411-.485-.387-.042-.816-.107-1.059-.411-.396-.494,.014-1.28,.598-1.525,.584-.246,1.245-.141,1.878-.119,.633,.022,1.35-.086,1.72-.6,.422-.585,.169-1.459-.368-1.94s-1.275-.66-1.985-.791c-2.427-.448-4.913-.528-7.377-.389-1.665,.094-3.54,.222-4.784-.888l-14.505,.274c-.868,.629-.572,2.107,.287,2.747,.859,.64,2.01,.682,3.081,.698,3.362,.05,6.724,.101,10.086,.152,.486,.007,1.036,.043,1.35,.414,.414,.49,.138,1.288-.371,1.679-.509,.39-1.169,.505-1.782,.695-.613,.19-1.253,.522-1.478,1.123-.262,.701,.172,1.508,.798,1.917,.627,.409,1.397,.515,2.139,.61,5.622,.723,11.371,1.443,16.92,.285,.83-.173,1.797-.529,1.98-1.357,.14-.633-.286-1.283-.846-1.61Z" style="fill: rgb(64, 123, 255); transform-origin: 291.844px 470.428px;" id="elpcds72mxax7" class="animable"></path></g></g><g id="elj6fgm0x6js" class="animable" style="transform-origin: 285.925px 427.16px;"><g id="eljixu1sg8bp" class="animable" style="transform-origin: 287.458px 427.035px;"><path d="M279.739,465.218s-5.484-32.84-2.908-54.518l5.28,54.518h-2.372Z" style="fill: rgb(64, 123, 255); transform-origin: 279.127px 437.959px;" id="el5nz6lchrh4b" class="animable"></path><path d="M284.695,465.218s-3.877-54.095,3.294-76.366l-1.765,76.366h-1.53Z" style="fill: rgb(64, 123, 255); transform-origin: 285.819px 427.035px;" id="elnrdhbzyfn7j" class="animable"></path><path d="M290.489,465.218s.292-17.814,3.127-29.581c.908-3.768,2.713-7.261,5.158-10.268h0s-5.194,24.855-5.812,32.275-1.113,7.574-1.113,7.574h-1.36Z" style="fill: rgb(64, 123, 255); transform-origin: 294.632px 445.293px;" id="el6sdzkg2kdea" class="animable"></path></g><path d="M305.22,465.468h-38.59c-.138,0-.25-.112-.25-.25s.112-.25,.25-.25h38.59c.138,0,.25,.112,.25,.25s-.112,.25-.25,.25Z" style="fill: rgb(38, 50, 56); transform-origin: 285.925px 465.218px;" id="elrv3qqmbdrqi" class="animable"></path></g></g><g id="elpd33ja3tfw8" class="animable" style="transform-origin: 110.597px 416.491px;"><g id="elj2xeakoj3ss"><g style="opacity: 0.3; transform-origin: 117.047px 459.012px;" class="animable"><path d="M134.811,461.272c-.625-.366-1.37-.453-2.09-.532-1.642-.181-3.284-.361-4.926-.542-.432-.047-.911-.119-1.183-.459-.442-.552,.016-1.429,.668-1.703,.652-.274,1.391-.158,2.097-.133,.707,.025,1.507-.097,1.921-.67,.471-.654,.189-1.63-.411-2.167-.601-.537-1.424-.737-2.217-.883-2.711-.501-5.486-.59-8.238-.434-1.86,.105-3.953,.248-5.343-.992l-16.198,.306c-.969,.702-.639,2.353,.321,3.067,.96,.715,2.245,.761,3.441,.779,3.754,.057,7.509,.113,11.263,.169,.543,.008,1.157,.048,1.508,.463,.463,.547,.154,1.439-.414,1.875-.568,.436-1.306,.564-1.99,.776-.684,.212-1.4,.583-1.651,1.254-.293,.782,.192,1.684,.891,2.141,.7,.457,1.56,.575,2.389,.681,6.279,.808,12.698,1.611,18.896,.318,.927-.193,2.007-.591,2.211-1.516,.156-.707-.32-1.433-.945-1.798Z" style="fill: rgb(64, 123, 255); transform-origin: 117.047px 459.012px;" id="elysglpmahrlk" class="animable"></path></g></g><g id="el98nghgevmpb" class="animable" style="transform-origin: 107.206px 410.482px;"><g id="elb4f9maw4l1g" class="animable" style="transform-origin: 111.348px 410.357px;"><path d="M100.415,452.997s-6.124-36.674-3.248-60.882l5.896,60.882h-2.649Z" style="fill: rgb(64, 123, 255); transform-origin: 99.7308px 422.556px;" id="elrnrfxo5q8in" class="animable"></path><path d="M113.851,452.997s6.124-36.674,3.248-60.882l-5.896,60.882h2.648Z" style="fill: rgb(64, 123, 255); transform-origin: 114.535px 422.556px;" id="elzowqvqa8pbp" class="animable"></path><path d="M105.95,452.997s-4.33-60.41,3.679-85.281l-1.971,85.281h-1.708Z" style="fill: rgb(64, 123, 255); transform-origin: 107.205px 410.357px;" id="elra32xprney" class="animable"></path><path d="M117.046,452.997s.326-19.894,3.492-33.035c1.014-4.208,3.029-8.108,5.76-11.466h0s-5.8,27.757-6.49,36.043-1.243,8.458-1.243,8.458h-1.519Z" style="fill: rgb(64, 123, 255); transform-origin: 121.672px 430.747px;" id="eluyg9sucrmy" class="animable"></path></g><path d="M128.753,453.247h-43.095c-.138,0-.25-.112-.25-.25s.112-.25,.25-.25h43.095c.138,0,.25,.112,.25,.25s-.112,.25-.25,.25Z" style="fill: rgb(38, 50, 56); transform-origin: 107.206px 452.997px;" id="el75ty47pe3pr" class="animable"></path></g></g><g id="elhvhcwricrc6" class="animable" style="transform-origin: 374.492px 341.085px;"><g id="elldp5nohz31" class="animable" style="transform-origin: 377.769px 379.538px;"><g id="eljdldz9qlwx"><g style="opacity: 0.3; transform-origin: 375.94px 378.01px;" class="animable"><path d="M382.802,377.561c2.289-.25,4.579-.501,6.868-.751,1.377-.151,3.108-.531,2.911-1.208-.152-.522-1.384-.768-2.429-.916-2.247-.317-5.422-.867-7.669-1.184l-20.193-.115c-1.417,.064-3.576,1.612-2.866,2.21,.71,.598,2.196,.867,3.602,.975s2.869,.105,4.193,.359c.635,.122,1.251,.316,1.549,.613,.567,.566-.25,1.25-1.314,1.61-1.065,.36-2.365,.528-3.432,.886-1.068,.358-1.894,1.037-1.342,1.606,.513,.529,1.894,.68,3.091,.752,7.55,.452,15.264,.252,22.672-.586,1.088-.123,2.304-.311,2.777-.802,.556-.576-.291-1.284-1.462-1.571-1.172-.287-2.549-.268-3.861-.252-1.313,.016-2.7,.014-3.835-.306-.585-.165-1.112-.477-.93-.793,.188-.327,.989-.453,1.673-.528Z" style="fill: rgb(64, 123, 255); transform-origin: 375.94px 378.01px;" id="elci4y8hte7p" class="animable"></path></g></g><g id="eluok2660eth"><path d="M396.253,384.834c0,.472-2.201,.854-4.915,.854s-4.915-.382-4.915-.854,2.201-.854,4.915-.854,4.915,.382,4.915,.854Z" style="fill: rgb(64, 123, 255); opacity: 0.3; transform-origin: 391.338px 384.834px;" class="animable"></path></g></g><g id="elte65to8uwoq" class="animable" style="transform-origin: 372.277px 334.921px;"><g id="elmxxsmnqrqbd" class="animable" style="transform-origin: 375.988px 334.665px;"><path d="M366.197,372.848s-5.484-32.84-2.908-54.518l5.28,54.518h-2.372Z" style="fill: rgb(64, 123, 255); transform-origin: 365.585px 345.589px;" id="elq70ddqgsh5e" class="animable"></path><path d="M378.228,372.848s5.484-32.84,2.908-54.518l-5.28,54.518h2.372Z" style="fill: rgb(64, 123, 255); transform-origin: 378.84px 345.589px;" id="ellbdtm9qguog" class="animable"></path><path d="M371.153,372.848s-3.877-54.095,3.294-76.366l-1.765,76.366h-1.53Z" style="fill: rgb(64, 123, 255); transform-origin: 372.277px 334.665px;" id="elrn5dtjhaudf" class="animable"></path><path d="M381.09,372.848s.292-17.814,3.127-29.581c.908-3.768,2.713-7.26,5.158-10.268h0s-5.194,24.855-5.812,32.275c-.618,7.419-1.113,7.574-1.113,7.574h-1.36Z" style="fill: rgb(64, 123, 255); transform-origin: 385.232px 352.923px;" id="elu37m9lj9opk" class="animable"></path></g><path d="M391.572,373.361h-38.59c-.138,0-.25-.112-.25-.25s.112-.25,.25-.25h38.59c.138,0,.25,.112,.25,.25s-.112,.25-.25,.25Z" style="fill: rgb(38, 50, 56); transform-origin: 372.277px 373.111px;" id="el1vkz7jp8zpk" class="animable"></path></g></g><g id="el4drek5phfjr" class="animable" style="transform-origin: 455.038px 343.971px;"><g id="elhkee2zonpid"><g style="opacity: 0.3; transform-origin: 457.47px 382.155px;" class="animable"><path d="M473.377,384.177c-.56-.327-1.226-.405-1.871-.476-1.47-.162-2.941-.324-4.411-.485-.387-.043-.816-.107-1.059-.411-.396-.494,.014-1.28,.598-1.525,.583-.246,1.245-.141,1.878-.119,.633,.022,1.35-.087,1.72-.6,.422-.585,.169-1.459-.368-1.94s-1.275-.66-1.985-.791c-2.427-.448-4.913-.528-7.377-.389-1.665,.094-3.54,.222-4.784-.888l-14.505,.274c-.868,.629-.572,2.107,.287,2.747,.859,.64,2.01,.681,3.081,.698,3.362,.051,6.724,.101,10.086,.152,.486,.007,1.036,.043,1.35,.414,.414,.49,.138,1.289-.371,1.679-.509,.39-1.169,.505-1.782,.695-.613,.19-1.253,.522-1.478,1.123-.262,.701,.172,1.508,.798,1.917,.627,.409,1.397,.515,2.139,.61,5.622,.723,11.371,1.443,16.92,.285,.831-.173,1.797-.529,1.98-1.357,.14-.633-.286-1.283-.846-1.61Z" style="fill: rgb(64, 123, 255); transform-origin: 457.47px 382.155px;" id="elxjmgj0wiehh" class="animable"></path></g></g><g id="elkj5emxovh1e" class="animable" style="transform-origin: 451.632px 338.494px;"><g id="eldrant7k0oso" class="animable" style="transform-origin: 455.354px 338.369px;"><path d="M453.841,376.552s5.484-32.84,2.908-54.518l-5.28,54.518h2.372Z" style="fill: rgb(64, 123, 255); transform-origin: 454.453px 349.293px;" id="eli5oke8ypmwk" class="animable"></path><path d="M446.766,376.552s-3.877-54.095,3.295-76.366l-1.765,76.366h-1.53Z" style="fill: rgb(64, 123, 255); transform-origin: 447.89px 338.369px;" id="elf5vg0zk4svn" class="animable"></path><path d="M456.703,376.552s.292-17.814,3.127-29.581c.908-3.768,2.713-7.26,5.158-10.268h0s-5.194,24.855-5.812,32.275-1.113,7.574-1.113,7.574h-1.36Z" style="fill: rgb(64, 123, 255); transform-origin: 460.846px 356.628px;" id="elt3kda98vpi" class="animable"></path></g><path d="M467.186,376.802h-31.109c-.138,0-.25-.112-.25-.25s.112-.25,.25-.25h31.109c.138,0,.25,.112,.25,.25s-.112,.25-.25,.25Z" style="fill: rgb(38, 50, 56); transform-origin: 451.632px 376.552px;" id="elwq6kfyi5na" class="animable"></path></g></g><g id="el54m79egglhl" class="animable" style="transform-origin: 167.229px 356.82px;"><g id="el33uwvlw7vfb" class="animable" style="transform-origin: 170.094px 395.003px;"><g id="el3g3btmlz5ru"><g style="opacity: 0.3; transform-origin: 168.266px 393.476px;" class="animable"><path d="M175.128,393.026c2.289-.251,4.579-.501,6.868-.751,1.377-.151,3.108-.531,2.911-1.208-.152-.522-1.384-.768-2.429-.916-2.247-.317-5.422-.867-7.669-1.184l-20.193-.115c-1.417,.064-3.576,1.612-2.866,2.21,.71,.598,2.196,.867,3.602,.976,1.405,.109,2.869,.105,4.193,.359,.635,.122,1.251,.316,1.549,.614,.567,.566-.25,1.25-1.314,1.61-1.065,.36-2.365,.528-3.432,.886s-1.895,1.037-1.342,1.606c.513,.529,1.894,.68,3.091,.752,7.55,.452,15.264,.252,22.672-.586,1.088-.123,2.304-.312,2.777-.802,.556-.576-.291-1.284-1.462-1.571-1.172-.287-2.549-.268-3.861-.252-1.313,.016-2.7,.014-3.835-.306-.585-.165-1.112-.478-.93-.793,.188-.327,.989-.453,1.673-.528Z" style="fill: rgb(64, 123, 255); transform-origin: 168.266px 393.476px;" id="elf43dzwoq46b" class="animable"></path></g></g><g id="eljdevmh31cuj"><path d="M188.578,400.299c0,.472-2.2,.854-4.915,.854s-4.915-.383-4.915-.854,2.2-.854,4.915-.854,4.915,.382,4.915,.854Z" style="fill: rgb(64, 123, 255); opacity: 0.3; transform-origin: 183.663px 400.299px;" class="animable"></path></g></g><g id="el52ww4icv7p9" class="animable" style="transform-origin: 165.424px 350.794px;"><g id="eljfduxws8qab" class="animable" style="transform-origin: 167.063px 350.669px;"><path d="M159.343,388.852s-5.484-32.84-2.908-54.518l5.28,54.518h-2.372Z" style="fill: rgb(64, 123, 255); transform-origin: 158.731px 361.593px;" id="els0j2a0uuyk" class="animable"></path><path d="M164.3,388.852s-3.877-54.095,3.294-76.366l-1.765,76.366h-1.53Z" style="fill: rgb(64, 123, 255); transform-origin: 165.424px 350.669px;" id="el8rqom8wvl97" class="animable"></path><path d="M170.094,388.852s.292-17.814,3.127-29.581c.908-3.768,2.713-7.261,5.158-10.268h0s-5.194,24.855-5.812,32.275c-.618,7.419-1.113,7.574-1.113,7.574h-1.36Z" style="fill: rgb(64, 123, 255); transform-origin: 174.236px 368.927px;" id="elu0yvin4epv" class="animable"></path></g><path d="M184.719,389.102h-38.59c-.138,0-.25-.112-.25-.25s.112-.25,.25-.25h38.59c.138,0,.25,.112,.25,.25s-.112,.25-.25,.25Z" style="fill: rgb(38, 50, 56); transform-origin: 165.424px 388.852px;" id="elpfwvagfvwsf" class="animable"></path></g></g><g id="ellipx0vcjse" class="animable" style="transform-origin: 418.54px 414.055px;"><g id="elalc3380je8m"><g style="opacity: 0.3; transform-origin: 422.258px 452.109px;" class="animable"><path d="M438.165,453.879c-.56-.287-1.226-.355-1.871-.417-1.47-.141-2.941-.283-4.411-.425-.387-.037-.816-.094-1.059-.36-.396-.432,.014-1.12,.598-1.335,.584-.215,1.245-.124,1.878-.104,.633,.02,1.35-.076,1.72-.525,.422-.512,.169-1.277-.368-1.698-.538-.421-1.275-.578-1.985-.692-2.427-.392-4.913-.462-7.377-.34-1.665,.083-3.54,.195-4.784-.777l-14.505,.239c-.868,.55-.572,1.844,.287,2.404,.86,.56,2.01,.597,3.081,.611l10.086,.133c.486,.006,1.036,.038,1.35,.363,.414,.429,.138,1.128-.371,1.469-.509,.342-1.169,.442-1.782,.608-.613,.166-1.253,.457-1.478,.983-.262,.613,.172,1.32,.798,1.678,.627,.358,1.397,.45,2.139,.534,5.622,.633,11.371,1.263,16.92,.25,.831-.152,1.797-.463,1.98-1.188,.14-.554-.286-1.123-.846-1.409Z" style="fill: rgb(64, 123, 255); transform-origin: 422.258px 452.109px;" id="elk9c3xyqcjzq" class="animable"></path></g></g><g id="eldnpzb4op4fo" class="animable" style="transform-origin: 417.588px 409.406px;"><g id="el04zkohmjq95t" class="animable" style="transform-origin: 419.227px 409.281px;"><path d="M411.508,447.464s-5.484-32.84-2.908-54.518l5.28,54.518h-2.372Z" style="fill: rgb(64, 123, 255); transform-origin: 410.896px 420.205px;" id="eloo229d1logs" class="animable"></path><path d="M416.464,447.464s-3.877-54.095,3.294-76.366l-1.765,76.366h-1.53Z" style="fill: rgb(64, 123, 255); transform-origin: 417.588px 409.281px;" id="el2nrw57n3ql2" class="animable"></path><path d="M422.258,447.464s.292-17.814,3.127-29.581c.908-3.768,2.713-7.26,5.158-10.268h0s-5.194,24.855-5.812,32.275-1.113,7.574-1.113,7.574h-1.36Z" style="fill: rgb(64, 123, 255); transform-origin: 426.4px 427.539px;" id="elcskft0bf64h" class="animable"></path></g><path d="M436.883,447.714h-38.59c-.138,0-.25-.112-.25-.25s.112-.25,.25-.25h38.59c.138,0,.25,.112,.25,.25s-.112,.25-.25,.25Z" style="fill: rgb(38, 50, 56); transform-origin: 417.588px 447.464px;" id="elzgo7hlyvvh" class="animable"></path></g></g><g id="eld7zryul3o7r" class="animable" style="transform-origin: 49.558px 339.87px;"><g id="elttnyp75ibgk" class="animable" style="transform-origin: 44.7675px 330.092px;"><g id="el952oz5rpha8" class="animable" style="transform-origin: 48.4913px 329.697px;"><path d="M46.978,367.88s5.484-32.84,2.908-54.518l-5.28,54.518h2.372Z" style="fill: rgb(64, 123, 255); transform-origin: 47.5902px 340.621px;" id="elvsohpdc7bwf" class="animable"></path><path d="M39.904,367.88s-3.877-54.095,3.294-76.366l-1.765,76.366h-1.53Z" style="fill: rgb(64, 123, 255); transform-origin: 41.0278px 329.697px;" id="el1wgs7r6ps58" class="animable"></path><path d="M49.84,367.88s.292-17.814,3.127-29.581c.908-3.768,2.713-7.26,5.158-10.268h0s-5.194,24.855-5.812,32.275-1.113,7.574-1.113,7.574h-1.36Z" style="fill: rgb(64, 123, 255); transform-origin: 53.9825px 347.956px;" id="el5kpur2gi77e" class="animable"></path></g><path d="M60.323,368.669H29.213c-.138,0-.25-.112-.25-.25s.112-.25,.25-.25h31.109c.138,0,.25,.112,.25,.25s-.112,.25-.25,.25Z" style="fill: rgb(38, 50, 56); transform-origin: 44.7675px 368.419px;" id="el21zuzoa2sru" class="animable"></path></g><g id="el4lihjk3ll1a" class="animable" style="transform-origin: 51.6682px 378.322px;"><g id="elnjqko4nixjd"><g style="opacity: 0.3; transform-origin: 49.8399px 375.864px;" class="animable"><path d="M56.702,375.141c2.289-.403,4.579-.807,6.868-1.21,1.377-.243,3.108-.855,2.911-1.946-.152-.841-1.384-1.237-2.429-1.474-2.247-.51-5.422-1.397-7.669-1.907l-20.194-.185c-1.417,.103-3.576,2.596-2.866,3.558,.71,.962,2.196,1.396,3.602,1.571,1.405,.175,2.869,.17,4.193,.578,.635,.196,1.251,.509,1.549,.988,.567,.911-.249,2.013-1.314,2.592-1.065,.579-2.365,.851-3.432,1.427-1.068,.576-1.895,1.67-1.342,2.586,.514,.851,1.894,1.096,3.091,1.211,7.55,.727,15.264,.406,22.672-.944,1.088-.198,2.304-.502,2.777-1.291,.556-.928-.291-2.068-1.462-2.53-1.172-.462-2.549-.432-3.861-.405-1.313,.026-2.7,.023-3.835-.492-.585-.265-1.112-.769-.93-1.277,.188-.526,.989-.729,1.673-.85Z" style="fill: rgb(64, 123, 255); transform-origin: 49.8399px 375.864px;" id="el9vwmsfkrxes" class="animable"></path></g></g><g id="elx5nvtj3kpne"><ellipse cx="65.238" cy="386.851" rx="4.915" ry="1.375" style="fill: rgb(64, 123, 255); opacity: 0.3; transform-origin: 65.238px 386.851px;" class="animable"></ellipse></g></g></g></g><g id="freepik--Character--inject-35" class="animable" style="transform-origin: 235.364px 280.532px;"><g id="ellk3ypbn6xcq" class="animable" style="transform-origin: 235.364px 280.532px;"><g id="elf6szaybxird" class="animable" style="transform-origin: 240.625px 377.538px;"><path d="M253.475,354.968l-25.864-17.193c-2.171,21.388-1.318,51.819-1.007,79.525l20.919-.046c5.11-25.656,10.236-51.506,5.952-62.286Z" style="fill: rgb(255, 167, 99); transform-origin: 240.625px 377.537px;" id="el6m3gloqdhg" class="animable"></path><g id="elr9y71o312o"><path d="M226.604,417.3l-.145-11.24s3.157-7.445,6.136-5.46c2.979,1.986,1.738,6.453,4.344,5.585,2.606-.869,1.986-3.599,4.344-4.095s2.477,3.202,5.461,3.599c2.984,.397,3.126-.339,3.126-.339l-2.345,11.905-20.919,.046Z" style="fill: rgb(64, 123, 255); opacity: 0.3; transform-origin: 238.164px 408.782px;" class="animable"></path></g><g id="elq907098bqgg"><circle cx="242.978" cy="396.399" r="2.353" style="fill: rgb(64, 123, 255); opacity: 0.3; transform-origin: 242.978px 396.399px;" class="animable"></circle></g></g><g id="elxbsy3tlts6" class="animable" style="transform-origin: 323.833px 380.9px;"><path d="M318.263,344.501l-23.734,13.429c16.549,30.356,36.137,59.37,36.137,59.37h22.472s-18.389-49.68-34.875-72.799Z" style="fill: rgb(255, 167, 99); transform-origin: 323.833px 380.9px;" id="el4licik6z47" class="animable"></path><g id="elc31wplx12rr"><path d="M319.033,399.362s.163-4.778,3.16-5.617c2.997-.839,4.795,5.155,8.751,7.193,3.956,2.038,3.237-5.754,6.713-5.275,3.476,.479,4.316,9.231,6.473,8.751,2.158-.48,3.024-2.338,3.024-2.338l5.984,15.224h-22.472l-11.633-17.938Z" style="fill: rgb(64, 123, 255); opacity: 0.3; transform-origin: 336.085px 405.483px;" class="animable"></path></g><g id="ellxgjrfpmw2"><path d="M331.81,393.664c0,1.3-1.054,2.353-2.353,2.353s-2.353-1.054-2.353-2.353,1.054-2.353,2.353-2.353,2.353,1.054,2.353,2.353Z" style="fill: rgb(64, 123, 255); opacity: 0.3; transform-origin: 329.457px 393.664px;" class="animable"></path></g></g><g id="el475xizbqetr" class="animable" style="transform-origin: 116.261px 186.897px;"><path d="M149.477,143.912c4.061,3.138-7.518,24.928-25.863,48.668s-36.509,40.441-40.57,37.303c-4.061-3.138,7.518-24.927,25.863-48.668,18.345-23.74,36.509-40.441,40.57-37.303Z" style="fill: rgb(64, 123, 255); transform-origin: 116.261px 186.897px;" id="elzcaq1vcvkhg" class="animable"></path><g id="el7tvbdp9kbhb"><path d="M149.477,143.912c4.061,3.138-7.518,24.928-25.863,48.668s-36.509,40.441-40.57,37.303c-4.061-3.138,7.518-24.927,25.863-48.668,18.345-23.74,36.509-40.441,40.57-37.303Z" style="opacity: 0.2; transform-origin: 116.261px 186.897px;" class="animable"></path></g></g><g id="el65npsa3hkwv" class="animable" style="transform-origin: 134.511px 185.453px;"><path d="M136.741,177.639l4.833,9.557,6.594,13.014c1.552,.016,3.107,.108,4.579,.312,6.068,.765,11.552,3.803,11.628,13.006,0,0,.838,7.375,4.994-9.744,4.156-17.12,2.213-20.133,2.213-20.133-7.941,5.07-25.671-1.578-34.841-6.012Z" style="fill: rgb(255, 167, 99); transform-origin: 154.388px 196.373px;" id="el2u0t4vr136y" class="animable"></path><g id="elz2zdhqkfsgk"><path d="M148.167,200.21c1.552,.016,3.107,.108,4.579,.312,.11-4.268-2.995-10.712-7.035-12.233-1.519-.571-3.026-.952-4.137-1.093l6.593,13.014Z" style="opacity: 0.2; transform-origin: 147.161px 193.859px;" class="animable"></path></g><path d="M123.645,202.413c-2.841,5.925-13.557,6.643-20.705,2.655-9.488-5.292-6.529-15.167,1.137-21.431,9.47-7.739,23.974,9.588,19.569,18.776Z" style="fill: rgb(38, 50, 56); transform-origin: 110.722px 194.632px;" id="el6oi23lyuce" class="animable"></path><path d="M123.579,171.153c12.21,5.723,19.625,8.445,23.758,17.37,6.216,13.425-5.066,26.766-18.607,24.846-12.188-1.729-30.108-10.797-30.665-25.142-.549-14.133,13.304-22.797,25.514-17.074Z" style="fill: rgb(255, 167, 99); transform-origin: 123.57px 191.461px;" id="eloyh67kgf1gp" class="animable"></path><path d="M131.635,179.953c-4.359,4.917-18.664-.105-20.639-3.133-1.975-3.028-2.113-16.377,6.979-20.295,11.232-4.84,20.42,15.803,13.66,23.428Z" style="fill: rgb(38, 50, 56); transform-origin: 121.923px 168.908px;" id="elvjf165rjfcl" class="animable"></path><path d="M135.717,171.527c2.387,2.118,3.68,5.048,3.931,7.55,.377,3.764-3.125,4.638-6.32,2.748-2.876-1.701-6.539-5.709-5.43-9.081,1.092-3.322,5.091-3.637,7.82-1.216Z" style="fill: rgb(255, 167, 99); transform-origin: 133.685px 176.367px;" id="elsol1vnqle1l" class="animable"></path><path d="M117.991,199.698s3.469,4.699,4.482,8.096c2.131-.598,2.951-3.39,2.951-3.39l-7.434-4.706Z" style="fill: rgb(255, 138, 102); transform-origin: 121.707px 203.746px;" id="eljcavj4khml" class="animable"></path><path d="M114.756,185.146c0-.105-.025-.212-.079-.311-.171-.31-.562-.424-.872-.253-3.074,1.691-3.263,4.663-3.269,4.788-.05,.332,.252,.656,.607,.674,.354,.018,.655-.253,.674-.606,.009-.123,.191-2.404,2.606-3.731,.212-.117,.331-.335,.332-.561Z" style="fill: rgb(38, 50, 56); transform-origin: 112.643px 187.274px;" id="eln0ww0tp3qo" class="animable"></path><path d="M107.023,207.252c.099-.18,.11-.404,.011-.6-1.321-2.604-.206-4.716-.195-4.737,.17-.312,.054-.702-.258-.87-.31-.169-.698-.054-.868,.254l-.002,.003c-.06,.111-1.444,2.733,.178,5.93,.16,.316,.547,.443,.862,.282,.12-.06,.212-.153,.272-.262Z" style="fill: rgb(38, 50, 56); transform-origin: 106.103px 204.275px;" id="el535biu8lwwf" class="animable"></path><path d="M130.935,207.76c.145-.145,.219-.357,.179-.573-.537-2.87,1.126-4.585,1.142-4.601,.25-.252,.249-.658-.003-.908-.25-.249-.655-.248-.905,0l-.003,.002c-.088,.09-2.153,2.218-1.493,5.741,.065,.348,.4,.578,.748,.513,.132-.024,.246-.088,.334-.175Z" style="fill: rgb(38, 50, 56); transform-origin: 131.082px 204.718px;" id="elnrkau6mxuqm" class="animable"></path><g id="ellommvvcrub" class="animable" style="transform-origin: 123.696px 189.401px;"><g id="el4p8s03p8wis" class="animable" style="transform-origin: 117.976px 199.409px;"><path d="M120.93,191.991c1.284,.565,2.013,1.722,1.629,2.585-.384,.863-1.736,1.104-3.02,.539-1.284-.565-2.013-1.722-1.629-2.584,.384-.863,1.736-1.104,3.02-.54Z" style="fill: rgb(38, 50, 56); transform-origin: 120.235px 193.553px;" id="elil0ydujcea8" class="animable"></path><path d="M116.412,203.704c1.284,.564,2.013,1.722,1.629,2.584-.384,.863-1.736,1.104-3.02,.539-1.284-.565-2.013-1.722-1.629-2.584,.384-.863,1.736-1.104,3.02-.539Z" style="fill: rgb(38, 50, 56); transform-origin: 115.717px 205.265px;" id="elfcllwotsgt" class="animable"></path></g><g id="elwcp531fw0o9"><path d="M133.853,179.728c-.043,0-.087-.011-.126-.034-1.065-.625-1.951-1.531-2.562-2.621-.41-.732-.854-1.858-.641-3.064,.207-1.173,1.065-2.133,2.086-2.334,.135-.028,.267,.061,.293,.197,.027,.136-.062,.267-.197,.293-.81,.16-1.521,.972-1.69,1.931-.188,1.061,.214,2.071,.585,2.733,.567,1.012,1.39,1.854,2.378,2.434,.119,.07,.159,.223,.089,.342-.047,.08-.13,.124-.216,.124Z" style="opacity: 0.2; transform-origin: 132.286px 175.699px;" class="animable"></path></g></g></g><polygon points="326.501 352.268 297.49 370.883 303.292 378.861 332.526 361.576 326.501 352.268" style="fill: rgb(38, 50, 56); transform-origin: 315.008px 365.564px;" id="elqlus5zbr7p" class="animable"></polygon><path d="M82.235,229.053s2.511-58.378,6.113-63.524,54.342-22.875,59.979-22.116c5.636,.759-66.092,85.64-66.092,85.64Z" style="fill: rgb(64, 123, 255); transform-origin: 115.439px 186.221px;" id="elazglvg7v32h" class="animable"></path><g id="eljnpyl9bap0p"><path d="M82.235,229.053s2.511-58.378,6.113-63.524,54.342-22.875,59.979-22.116c5.636,.759-66.092,85.64-66.092,85.64Z" style="fill: rgb(255, 255, 255); opacity: 0.4; transform-origin: 115.439px 186.221px;" class="animable"></path></g><g id="elduj4ujw3dub" class="animable" style="transform-origin: 112.644px 167.367px;"><g id="ella3xcbw3xlm"><path d="M108.122,169.052c2.194,.343,4.388,.685,6.582,1.028,.472,.074,.676-.649,.199-.723-2.194-.343-4.388-.685-6.582-1.028-.472-.074-.676,.649-.199,.723h0Z" style="opacity: 0.2; transform-origin: 111.513px 169.204px;" class="animable"></path></g><g id="eladp5skz11"><path d="M110.024,165.163c2.281-.089,4.552,.159,6.759,.745,.467,.124,.666-.599,.199-.723-2.267-.602-4.614-.864-6.958-.772-.481,.019-.483,.769,0,.75h0Z" style="opacity: 0.2; transform-origin: 113.455px 165.159px;" class="animable"></path></g><g id="elexuoj9itzdi"><path d="M109.325,171.874c1.122-3.465,2.537-6.823,4.233-10.046,.225-.427-.422-.806-.648-.379-1.726,3.279-3.168,6.7-4.309,10.225-.149,.46,.575,.657,.723,.199h0Z" style="opacity: 0.2; transform-origin: 111.093px 166.697px;" class="animable"></path></g><g id="elh62yqliluks"><path d="M112.9,173.216c1.239-3.477,2.74-6.852,4.489-10.103,.229-.425-.418-.804-.648-.379-1.78,3.307-3.305,6.744-4.565,10.282-.162,.456,.562,.652,.723,.199h0Z" style="opacity: 0.2; transform-origin: 114.795px 168.01px;" class="animable"></path></g></g><g id="ellh112boxhl" class="animable" style="transform-origin: 275.362px 294.393px;"><path d="M318.697,340.85s-2.912-88.947-12.938-107.737c-8.462-15.859-20.494-20.332-28.153-21.911v-1.481s-19.128-3.364-25.027,0c-5.899,3.364-25.603,81.632-28.245,99.181-2.642,17.549-1.174,63.016-1.174,63.016l33.194,2.123-.548-29.54,14.58-64.019c3.56,25.346,11.344,59.819,14.178,67.608,4.557,12.527,18.461,25.951,18.461,25.951l26.432-14.093-10.76-19.098Z" style="fill: rgb(38, 50, 56); transform-origin: 276.105px 291.133px;" id="elfzx5cs02zk" class="animable"></path><g id="elx3j93o4l7aa"><path d="M283.183,214.575l-47.423,54.804c.415,.138,8.71,8.019,19.356,4.01,10.646-4.01,22.951-30.832,26.131-38.713,3.18-7.881,1.936-20.101,1.936-20.101Z" style="opacity: 0.2; transform-origin: 259.591px 244.55px;" class="animable"></path></g><polygon points="221.267 370.769 221.267 380.397 257.951 380.56 257.97 370.754 221.267 370.769" style="fill: rgb(38, 50, 56); transform-origin: 239.618px 375.657px;" id="elaarvxqkfgz7" class="animable"></polygon><g id="elrv19udbgil"><polygon points="223.125 370.754 256.293 370.754 256.293 367.067 223.052 367.067 223.125 370.754" style="opacity: 0.2; transform-origin: 239.673px 368.91px;" class="animable"></polygon></g><g id="elgx249sax8g4"><path d="M299.054,369.88l-2.667-3.055s27.723-16.366,27.839-16.16,1.267,2.249,1.267,2.249l-26.44,16.965Z" style="opacity: 0.2; transform-origin: 310.94px 360.272px;" class="animable"></path></g></g><path d="M195.486,417.675h77.817c.483,0,.483-.75,0-.75h-77.817c-.483,0-.483,.75,0,.75h0Z" style="fill: rgb(38, 50, 56); transform-origin: 234.394px 417.3px;" id="elroqouzst5g" class="animable"></path><path d="M310.316,417.675h77.817c.483,0,.483-.75,0-.75h-77.817c-.483,0-.483,.75,0,.75h0Z" style="fill: rgb(38, 50, 56); transform-origin: 349.224px 417.3px;" id="eliwdbk8iempi" class="animable"></path><g id="el74tzb2hsi14" class="animable" style="transform-origin: 206.415px 250.645px;"><g id="elxvjraw0c8g" class="animable" style="transform-origin: 186.246px 264.843px;"><path d="M195.109,292.297s.683,3.164-1.085,3.746c-1.768,.582-5.391-1.393-7.262,.562-1.871,1.955-9.851,11.246-10.246,11.931-.395,.685,3.718,2.76,5.294,1,0,0,.671,4.417,3.813,3.644,0,0,.772,3.534,3.719,2.466,0,0,1.268,2.163,4.411,1.095,0,0,2.643,1.677,5.201-.373,2.558-2.051,7.006-11.354,7.209-13.217,.203-1.863,1.3-7.11,1.3-7.11l-12.354-3.744Z" style="fill: rgb(255, 138, 102); transform-origin: 191.976px 304.842px;" id="elzric1aelawn" class="animable"></path><path d="M188.051,248.996c.362,.824,9.185,9.342,9.185,9.342l-2.3,36.712,8.055,3.36,8.613-43.155-19.102-12.139-4.451,5.88Z" style="fill: rgb(255, 138, 102); transform-origin: 199.827px 270.763px;" id="elj780310ma1" class="animable"></path><g id="elaxrsu15s5pt" class="animable" style="transform-origin: 179.857px 232.077px;"><path d="M160.89,212.299c.273,.36,17.815,30.299,23.9,36.697l2.93,2.86,11.105-7.225-37.936-32.332Z" style="fill: rgb(64, 123, 255); transform-origin: 179.857px 232.077px;" id="elpnae34zdiwc" class="animable"></path><g id="elj4f5dqa2ezk"><path d="M160.89,212.299c.273,.36,17.815,30.299,23.9,36.697l2.93,2.86,11.105-7.225-37.936-32.332Z" style="opacity: 0.2; transform-origin: 179.857px 232.077px;" class="animable"></path></g></g></g><g id="elnttceu7se3k" class="animable" style="transform-origin: 161.646px 289.388px;"><path d="M189.101,312.994s-30.363-13.661-46.968-27.833l48.284,25.86-1.316,1.973Z" style="fill: rgb(64, 123, 255); transform-origin: 166.275px 299.077px;" id="el0blmzqdy7a3o" class="animable"></path><path d="M193.677,307.647s-24.277-22.785-43.74-32.671l42.424,34.644,1.316-1.973Z" style="fill: rgb(64, 123, 255); transform-origin: 171.807px 292.298px;" id="elmyg7uor3c" class="animable"></path><path d="M191.316,310.899s-47.154-26.792-61.702-45.116l62.551,43.844-.849,1.273Z" style="fill: rgb(64, 123, 255); transform-origin: 160.889px 288.341px;" id="elcqthnyug0o8" class="animable"></path></g><g id="el487k9qu6e7o" class="animable" style="transform-origin: 221.347px 225.387px;"><path d="M159.479,210.398s13.731,19.11,29,31.398c29.167,23.473,40.973,26.598,40.973,26.598,24.803,8.747,40.977-15.755,52.109-43.524,0,0,4.48-13.01-1.303-16.008-9.499-4.925-52.657-21.733-83.022-27.163-20.432-3.654-33.156,2.804-33.156,2.804" style="fill: rgb(64, 123, 255); transform-origin: 221.347px 225.387px;" id="elgmvpuaaf1w" class="animable"></path><g id="elhcnc2x25z0m"><path d="M193.476,190.046s20.476,5.843,34.228,20.508l3.457,2.999-6.732,9.613s14.47,15.918,14.968,22.97c.498,7.052-8.666,22.681-8.666,22.681l-9.152-3.074-15.543-10.687,.422-4.547s-31.889-26.146-35.733-40.318c-3.844-14.172,22.751-20.145,22.751-20.145Z" style="opacity: 0.2; transform-origin: 204.881px 229.432px;" class="animable"></path></g></g><g id="elk6ucckakgp" class="animable" style="transform-origin: 201.369px 254.28px;"><path d="M203.824,281.825s-4.711,16.959-6.479,17.541c-1.768,.582-5.391-1.393-7.262,.562-1.871,1.955-9.851,11.246-10.246,11.931-.395,.685,3.718,2.76,5.294,1,0,0,.671,4.417,3.813,3.644,0,0,.772,3.534,3.719,2.466,0,0,1.267,2.163,4.411,1.095,0,0,2.643,1.677,5.201-.373s7.007-11.354,7.21-13.217c.203-1.863,8.356-19.15,8.356-19.15l-14.016-5.498Z" style="fill: rgb(255, 167, 99); transform-origin: 198.826px 301.268px;" id="els37mk22v5ya" class="animable"></path><path d="M190.061,198.188s52.806,36.148,43.828,55.621c-11.801,25.597-22.101,46.757-22.101,46.757l-12.835-3.146,10.6-49.056s-30.556-26.593-36.402-35.27c-12.028-17.853,11.515-19.771,16.91-14.906Z" style="fill: rgb(255, 167, 99); transform-origin: 202.345px 248.227px;" id="elrnjxqlu7txr" class="animable"></path><g id="ellqqs2u9acw9"><path d="M209.553,248.364s5.31-4.774,12.026-.346l-12.822,3.837,.796-3.491Z" style="opacity: 0.3; transform-origin: 215.168px 248.995px;" class="animable"></path></g><path d="M168.912,194.446s7.538-12.575,27.03-3c19.492,9.575,30.709,20.87,30.709,20.87l-23.565,32.315s-42.539-32.793-34.174-50.184Z" style="fill: rgb(64, 123, 255); transform-origin: 197.237px 216.24px;" id="elar6kkioo4bf" class="animable"></path><g id="elbjafceg0y7f"><path d="M201.692,284.747s-2.579,14.036-4.346,14.618c-1.768,.582-5.391-1.393-7.262,.562-1.871,1.955-9.851,11.246-10.246,11.931-.395,.685,3.718,2.76,5.294,1,0,0,.671,4.417,3.813,3.644,0,0,.772,3.534,3.719,2.466,0,0,1.267,2.163,4.411,1.095,0,0,2.643,1.677,5.201-.373s7.007-11.354,7.21-13.217c.203-1.863,6.851-15.34,6.851-15.34l-.364-.899c-.776-1.918-3.11-2.651-4.844-1.521l-1.409,.919c-3.018,.858-6.204-.655-7.445-3.536l-.581-1.35Z" style="fill: rgb(64, 123, 255); opacity: 0.3; transform-origin: 198.074px 302.728px;" class="animable"></path></g><g id="el0psqqc9dn9ln"><path d="M214.97,281.825c0,1.335-1.082,2.418-2.418,2.418s-2.417-1.082-2.417-2.418,1.082-2.418,2.417-2.418,2.418,1.082,2.418,2.418Z" style="fill: rgb(64, 123, 255); opacity: 0.3; transform-origin: 212.552px 281.825px;" class="animable"></path></g></g></g></g></g><defs>     <filter id="active" height="200%">         <feMorphology in="SourceAlpha" result="DILATED" operator="dilate" radius="2"></feMorphology>                <feFlood flood-color="#32DFEC" flood-opacity="1" result="PINK"></feFlood>        <feComposite in="PINK" in2="DILATED" operator="in" result="OUTLINE"></feComposite>        <feMerge>            <feMergeNode in="OUTLINE"></feMergeNode>            <feMergeNode in="SourceGraphic"></feMergeNode>        </feMerge>    </filter>    <filter id="hover" height="200%">        <feMorphology in="SourceAlpha" result="DILATED" operator="dilate" radius="2"></feMorphology>                <feFlood flood-color="#ff0000" flood-opacity="0.5" result="PINK"></feFlood>        <feComposite in="PINK" in2="DILATED" operator="in" result="OUTLINE"></feComposite>        <feMerge>            <feMergeNode in="OUTLINE"></feMergeNode>            <feMergeNode in="SourceGraphic"></feMergeNode>        </feMerge>            <feColorMatrix type="matrix" values="0   0   0   0   0                0   1   0   0   0                0   0   0   0   0                0   0   0   1   0 "></feColorMatrix>    </filter></defs></svg>